HIERARCHY
ROOT Hips
{
	OFFSET 0.000000 103.266502 0.000000
	CHANNELS 6 Xposition Yposition Zposition Xrotation Yrotation Zrotation 
	JOINT Spine
	{
		OFFSET -0.002400 12.777504 0.315300
		CHANNELS 3 Xrotation Yrotation Zrotation
		JOINT Spine1
		{
			OFFSET -0.002067 5.816869 0.032633
			CHANNELS 3 Xrotation Yrotation Zrotation
			JOINT Spine1_split
			{
				OFFSET -0.002067 5.816869 0.032633
				CHANNELS 3 Xrotation Yrotation Zrotation
				JOINT Spine2
				{
					OFFSET -0.002067 5.816869 0.032633
					CHANNELS 3 Xrotation Yrotation Zrotation
					JOINT Neck
					{
						OFFSET -0.003700 21.199493 -0.826900
						CHANNELS 3 Xrotation Yrotation Zrotation
						JOINT Head
						{
							OFFSET 0.000000 20.442200 4.834800
							CHANNELS 3 Xrotation Yrotation Zrotation
							JOINT HeadTop_End
							{
								OFFSET 0.000000 34.668396 4.968400
								CHANNELS 3 Xrotation Yrotation Zrotation
								End Site
								{
									OFFSET 0.000000 0.000000 0.000000
								}
							}
						}
					}
					JOINT LeftShoulder
					{
						OFFSET 3.288150 8.794197 -1.372250
						CHANNELS 3 Xrotation Yrotation Zrotation
						JOINT LeftShoulder_split
						{
							OFFSET 3.288150 8.794197 -1.372250
							CHANNELS 3 Xrotation Yrotation Zrotation
							JOINT LeftArm
							{
								OFFSET 11.953299 -2.279007 -0.146200
								CHANNELS 3 Xrotation Yrotation Zrotation
								JOINT LeftForeArm
								{
									OFFSET 18.448900 0.000000 0.000000
									CHANNELS 3 Xrotation Yrotation Zrotation
									JOINT LeftHand
									{
										OFFSET 29.527798 0.000000 0.000000
										CHANNELS 3 Xrotation Yrotation Zrotation
										JOINT LeftHandThumb1
										{
											OFFSET 10.739754 -2.369614 9.225399
											CHANNELS 3 Xrotation Yrotation Zrotation
											JOINT LeftHandThumb2
											{
												OFFSET 4.926170 -2.844131 2.844125
												CHANNELS 3 Xrotation Yrotation Zrotation
												JOINT LeftHandThumb3
												{
													OFFSET 4.614891 -2.664413 2.664409
													CHANNELS 3 Xrotation Yrotation Zrotation
													JOINT LeftHandThumb4
													{
														OFFSET 4.432465 -2.559082 2.559083
														CHANNELS 3 Xrotation Yrotation Zrotation
														End Site
														{
															OFFSET 0.000000 0.000000 0.000000
														}
													}
												}
											}
										}
										JOINT LeftHandIndex1
										{
											OFFSET 26.467674 0.187653 6.405298
											CHANNELS 3 Xrotation Yrotation Zrotation
											JOINT LeftHandIndex2
											{
												OFFSET 8.792900 0.000000 0.000000
												CHANNELS 3 Xrotation Yrotation Zrotation
												JOINT LeftHandIndex3
												{
													OFFSET 10.075203 0.000000 0.000000
													CHANNELS 3 Xrotation Yrotation Zrotation
													End Site
													{
														OFFSET 0.000000 0.000000 0.000000
													}
												}
											}
										}
										JOINT LeftHandMiddle1
										{
											OFFSET 25.764404 0.000000 0.000000
											CHANNELS 3 Xrotation Yrotation Zrotation
											JOINT LeftHandMiddle2
											{
												OFFSET 9.393974 0.000000 0.000000
												CHANNELS 3 Xrotation Yrotation Zrotation
												JOINT LeftHandMiddle3
												{
													OFFSET 10.771950 0.000000 0.000000
													CHANNELS 3 Xrotation Yrotation Zrotation
													End Site
													{
														OFFSET 0.000000 0.000000 0.000000
													}
												}
											}
										}
										JOINT LeftHandRing1
										{
											OFFSET 24.660927 0.144547 -6.225808
											CHANNELS 3 Xrotation Yrotation Zrotation
											JOINT LeftHandRing2
											{
												OFFSET 9.393799 0.000000 0.000000
												CHANNELS 3 Xrotation Yrotation Zrotation
												JOINT LeftHandRing3
												{
													OFFSET 9.928497 0.000000 0.000000
													CHANNELS 3 Xrotation Yrotation Zrotation
													End Site
													{
														OFFSET 0.000000 0.000000 0.000000
													}
												}
											}
										}
										JOINT LeftHandPinky1
										{
											OFFSET 23.655350 0.125290 -12.815412
											CHANNELS 3 Xrotation Yrotation Zrotation
											JOINT LeftHandPinky2
											{
												OFFSET 8.425102 0.000000 0.000000
												CHANNELS 3 Xrotation Yrotation Zrotation
												JOINT LeftHandPinky3
												{
													OFFSET 8.147003 0.000000 0.000000
													CHANNELS 3 Xrotation Yrotation Zrotation
													End Site
													{
														OFFSET 0.000000 0.000000 0.000000
													}
												}
											}
										}
									}
								}
							}
						}
					}
					JOINT RightShoulder
					{
						OFFSET -3.249400 8.794197 -1.372250
						CHANNELS 3 Xrotation Yrotation Zrotation
						JOINT RightShoulder_split
						{
							OFFSET -3.249400 8.794197 -1.372250
							CHANNELS 3 Xrotation Yrotation Zrotation
							JOINT RightArm
							{
								OFFSET -11.953299 -2.279007 -0.146200
								CHANNELS 3 Xrotation Yrotation Zrotation
								JOINT RightForeArm
								{
									OFFSET -18.448900 0.000000 0.000000
									CHANNELS 3 Xrotation Yrotation Zrotation
									JOINT RightHand
									{
										OFFSET -29.527802 0.000000 0.000000
										CHANNELS 3 Xrotation Yrotation Zrotation
										JOINT RightHandThumb1
										{
											OFFSET -10.739754 -2.369614 9.225399
											CHANNELS 3 Xrotation Yrotation Zrotation
											JOINT RightHandThumb2
											{
												OFFSET -4.926170 -2.844131 2.844125
												CHANNELS 3 Xrotation Yrotation Zrotation
												JOINT RightHandThumb3
												{
													OFFSET -4.614891 -2.664413 2.664409
													CHANNELS 3 Xrotation Yrotation Zrotation
													JOINT RightHandThumb4
													{
														OFFSET -4.432465 -2.559082 2.559083
														CHANNELS 3 Xrotation Yrotation Zrotation
														End Site
														{
															OFFSET 0.000000 0.000000 0.000000
														}
													}
												}
											}
										}
										JOINT RightHandIndex1
										{
											OFFSET -26.467674 0.187653 6.405298
											CHANNELS 3 Xrotation Yrotation Zrotation
											JOINT RightHandIndex2
											{
												OFFSET -8.792900 0.000000 0.000000
												CHANNELS 3 Xrotation Yrotation Zrotation
												JOINT RightHandIndex3
												{
													OFFSET -10.075203 0.000000 0.000000
													CHANNELS 3 Xrotation Yrotation Zrotation
													End Site
													{
														OFFSET 0.000000 0.000000 0.000000
													}
												}
											}
										}
										JOINT RightHandMiddle1
										{
											OFFSET -25.764404 0.000000 0.000000
											CHANNELS 3 Xrotation Yrotation Zrotation
											JOINT RightHandMiddle2
											{
												OFFSET -9.393974 0.000000 0.000000
												CHANNELS 3 Xrotation Yrotation Zrotation
												JOINT RightHandMiddle3
												{
													OFFSET -10.771950 0.000000 0.000000
													CHANNELS 3 Xrotation Yrotation Zrotation
													End Site
													{
														OFFSET 0.000000 0.000000 0.000000
													}
												}
											}
										}
										JOINT RightHandRing1
										{
											OFFSET -24.660927 0.144547 -6.225808
											CHANNELS 3 Xrotation Yrotation Zrotation
											JOINT RightHandRing2
											{
												OFFSET -9.393799 0.000000 0.000000
												CHANNELS 3 Xrotation Yrotation Zrotation
												JOINT RightHandRing3
												{
													OFFSET -9.928497 0.000000 0.000000
													CHANNELS 3 Xrotation Yrotation Zrotation
													End Site
													{
														OFFSET 0.000000 0.000000 0.000000
													}
												}
											}
										}
										JOINT RightHandPinky1
										{
											OFFSET -23.655350 0.125290 -12.815412
											CHANNELS 3 Xrotation Yrotation Zrotation
											JOINT RightHandPinky2
											{
												OFFSET -8.425102 0.000000 0.000000
												CHANNELS 3 Xrotation Yrotation Zrotation
												JOINT RightHandPinky3
												{
													OFFSET -8.147003 0.000000 0.000000
													CHANNELS 3 Xrotation Yrotation Zrotation
													End Site
													{
														OFFSET 0.000000 0.000000 0.000000
													}
												}
											}
										}
									}
								}
							}
						}
					}
				}
			}
		}
	}
	JOINT LeftUpLeg
	{
		OFFSET 11.394100 -6.187798 -0.413800
		CHANNELS 3 Xrotation Yrotation Zrotation
		JOINT LeftLeg
		{
			OFFSET 0.430247 -32.302673 3.732800
			CHANNELS 3 Xrotation Yrotation Zrotation
			JOINT LeftFoot
			{
				OFFSET -0.430247 -48.264931 -6.423300
				CHANNELS 3 Xrotation Yrotation Zrotation
				JOINT LeftToeBase
				{
					OFFSET 4.230900 -16.068199 23.438400
					CHANNELS 3 Xrotation Yrotation Zrotation
					JOINT LeftToe_End
					{
						OFFSET 4.510700 0.695400 19.974600
						CHANNELS 3 Xrotation Yrotation Zrotation
						End Site
						{
							OFFSET 0.000000 0.000000 0.000000
						}
					}
				}
			}
		}
	}
	JOINT RightUpLeg
	{
		OFFSET -11.333700 -6.187798 -0.413800
		CHANNELS 3 Xrotation Yrotation Zrotation
		JOINT RightLeg
		{
			OFFSET -0.430392 -32.302628 3.733000
			CHANNELS 3 Xrotation Yrotation Zrotation
			JOINT RightFoot
			{
				OFFSET 0.430392 -48.264973 -6.423500
				CHANNELS 3 Xrotation Yrotation Zrotation
				JOINT RightToeBase
				{
					OFFSET -4.230900 -16.068199 23.438400
					CHANNELS 3 Xrotation Yrotation Zrotation
					JOINT RightToe_End
					{
						OFFSET -4.510700 0.695400 19.974600
						CHANNELS 3 Xrotation Yrotation Zrotation
						End Site
						{
							OFFSET 0.000000 0.000000 0.000000
						}
					}
				}
			}
		}
	}
}
MOTION
Frames: 6
Frame Time: 0.016667
-0.607883 99.627533 -4.772882 1.019582 3.202202 -0.485938 19.038312 -0.913846 -1.255074 1.223064 -0.119062 0.413203 0.000000 0.000000 0.000000 1.222982 -0.102590 0.414474 17.491910 0.957044 1.398484 10.813751 -0.678496 3.594866 -0.000001 0.000000 0.000000 11.672677 -37.520616 -0.316559 0.000000 0.000000 0.000000 11.271303 19.967076 -51.862931 -0.000001 -34.690787 0.000003 2.574880 -0.956524 2.461483 -1.708913 11.916056 7.382930 4.613909 16.205063 1.361351 0.155758 9.814990 3.327233 -0.000004 -0.000001 0.000001 0.562430 2.730262 -23.275984 0.897608 3.404361 -29.533567 0.000000 0.000002 -0.000003 0.723091 3.076882 -26.493817 0.834077 3.289882 -28.445313 -0.000003 -0.000000 -0.000001 0.759386 3.148832 -27.218847 1.519206 4.319073 -38.743032 -0.000000 -0.000002 -0.000000 2.755440 6.847019 -28.124376 1.536462 0.254065 -39.161081 0.000001 0.000004 -0.000003 0.491473 -2.548974 6.180815 0.000000 0.000000 0.000000 3.745290 20.212620 34.029447 -0.000008 9.536096 0.000003 23.378773 19.150918 -10.871795 -1.994376 -12.184643 -7.943384 5.444742 -17.292014 -0.860478 -0.502639 -8.507748 -2.994123 0.000001 -0.000002 -0.000002 0.461124 -2.494405 20.944387 1.026113 -3.640550 31.472238 -0.000000 0.000001 0.000000 0.535714 -2.680988 22.596322 1.057797 -3.691684 31.967649 -0.000005 -0.000001 -0.000003 0.433991 -2.422404 20.311914 1.427576 -4.225567 37.320038 -0.000002 0.000001 -0.000002 0.161428 -1.492525 12.345126 1.468716 -4.278863 37.874994 0.000001 -0.000001 0.000001 -15.566817 9.113815 6.226238 23.130195 -1.652701 1.825907 -8.867533 0.684178 -4.878782 -0.000045 0.000001 0.000004 -0.000000 0.000001 0.000000 -11.237283 -5.946853 -7.080930 22.579408 -9.117447 7.750730 -10.874551 -16.525848 0.619977 -0.343499 0.000003 0.000000 -0.000000 0.000002 -0.000000 
-0.591468 99.650826 -4.685574 0.970230 3.172585 -0.485921 18.771937 -0.904220 -1.255904 1.229632 -0.117465 0.406143 0.000000 0.000000 0.000000 1.229544 -0.101461 0.407323 17.464852 0.625444 1.445075 10.818739 -1.791894 4.166015 0.000003 0.000000 -0.000000 11.432074 -37.413413 -0.403143 0.000000 0.000000 0.000000 11.910126 20.221617 -52.024540 -0.000007 -34.586978 -0.000021 1.537131 -1.822072 2.928765 -1.708915 11.916053 7.382927 4.613914 16.205058 1.361348 0.155760 9.814994 3.327238 0.000001 0.000001 0.000004 0.543298 2.685396 -22.870943 0.876727 3.367324 -29.180211 -0.000001 -0.000000 -0.000001 0.704644 3.039386 -26.123571 0.803723 3.233330 -27.911939 -0.000000 0.000000 0.000001 0.742643 3.115667 -26.858189 1.478269 4.267707 -38.196180 0.000000 -0.000003 -0.000000 2.720232 6.830892 -27.790648 1.481099 0.185208 -38.428704 -0.000000 0.000001 -0.000004 0.477895 -2.717889 6.166506 0.000000 0.000000 0.000000 4.034787 19.963359 34.183256 0.000002 9.601044 -0.000010 23.696943 18.707306 -11.098286 -1.994103 -12.184470 -7.943373 5.444929 -17.291978 -0.860849 -0.502639 -8.507745 -2.994127 0.000004 0.000001 -0.000000 0.496366 -2.584482 21.739577 1.040590 -3.664087 31.699806 -0.000001 -0.000001 0.000001 0.569953 -2.761708 23.317439 1.074168 -3.717777 32.221281 -0.000003 -0.000001 -0.000001 0.462902 -2.499015 20.985053 1.445571 -4.249039 37.563824 -0.000000 0.000001 -0.000001 0.180808 -1.578370 13.067967 1.485668 -4.300527 38.101746 -0.000004 -0.000001 -0.000000 -15.373497 9.167057 6.234230 23.012092 -1.671584 1.803313 -8.895985 0.685017 -4.870113 -0.000015 0.000000 -0.000001 -0.000000 0.000001 -0.000000 -11.041776 -5.925659 -7.045765 22.437708 -9.134061 7.714081 -10.869059 -16.533938 0.651779 -0.362834 -0.000024 -0.000001 -0.000000 0.000000 0.000000 
-0.578297 99.667328 -4.609118 0.923088 3.155789 -0.473866 18.531878 -0.879042 -1.279588 1.234584 -0.113719 0.407004 0.000000 0.000000 0.000000 1.234487 -0.097862 0.408096 17.433477 0.332751 1.495481 10.826384 -2.735813 4.630162 -0.000002 0.000000 -0.000000 11.198571 -37.286044 -0.490911 0.000000 0.000000 0.000000 12.400886 20.323667 -52.234449 -0.000013 -34.431499 -0.000012 0.428610 -2.925361 3.387645 -1.708923 11.916056 7.382926 4.613907 16.205061 1.361345 0.155760 9.814990 3.327236 -0.000002 0.000000 0.000003 0.526287 2.644756 -22.505171 0.860857 3.338765 -28.908670 0.000000 -0.000000 -0.000002 0.692319 3.014044 -25.875617 0.783529 3.194957 -27.551708 -0.000001 -0.000000 0.000002 0.738384 3.107109 -26.747615 1.455590 4.238802 -37.890481 0.000001 0.000001 -0.000002 2.724808 6.836793 -27.806697 1.456346 0.153832 -38.097470 -0.000000 -0.000000 -0.000001 0.469251 -2.842995 6.172177 0.000000 0.000000 0.000000 4.088873 19.748911 34.584793 -0.000003 9.610798 0.000000 24.143310 18.313590 -11.302987 -1.993835 -12.184334 -7.943338 5.445082 -17.291927 -0.861180 -0.502633 -8.507744 -2.994125 0.000001 -0.000001 0.000000 0.529399 -2.665749 22.460826 1.057849 -3.691782 31.968523 0.000003 -0.000000 0.000001 0.608135 -2.848557 24.097532 1.098611 -3.756184 32.596326 0.000003 0.000003 -0.000002 0.504148 -2.603913 21.911602 1.480798 -4.294302 38.036518 -0.000002 0.000001 -0.000001 0.215108 -1.719468 14.260251 1.529380 -4.355520 38.680840 -0.000002 -0.000001 0.000000 -15.203199 9.206148 6.224539 22.916048 -1.683665 1.788065 -8.922737 0.685946 -4.864737 -0.000028 0.000004 -0.000001 -0.000000 -0.000000 -0.000000 -10.882110 -5.921316 -7.038709 22.340492 -9.140866 7.689951 -10.876599 -16.531979 0.679445 -0.370026 -0.000019 -0.000001 -0.000000 0.000002 0.000000 
-0.567950 99.676781 -4.543034 0.876980 3.159306 -0.450168 18.318176 -0.842093 -1.321919 1.237615 -0.108355 0.414651 0.000000 0.000000 0.000000 1.237485 -0.092383 0.415663 17.402058 0.082499 1.541180 10.840836 -3.516358 4.995898 -0.000006 0.000000 -0.000000 10.974295 -37.134188 -0.580663 0.000000 0.000000 0.000000 12.738212 20.288146 -52.482497 -0.000010 -34.226781 -0.000002 -0.546871 -4.175032 3.785989 -1.708915 11.916056 7.382927 4.613913 16.205059 1.361348 0.155766 9.814995 3.327241 -0.000001 -0.000001 0.000002 0.510258 2.605765 -22.155201 0.848782 3.316859 -28.700752 -0.000002 -0.000000 -0.000001 0.684173 2.997146 -25.712942 0.771536 3.171917 -27.335836 0.000002 0.000001 0.000001 0.743596 3.117384 -26.827856 1.447901 4.228935 -37.786270 -0.000001 -0.000002 -0.000003 2.760625 6.859899 -28.095811 1.456531 0.154049 -38.099748 -0.000001 -0.000001 -0.000004 0.465140 -2.927774 6.199370 0.000000 0.000000 0.000000 3.910894 19.563077 35.227452 -0.000001 9.562530 0.000006 24.620402 18.025269 -11.454618 -1.993604 -12.184208 -7.943308 5.445230 -17.291882 -0.861488 -0.502634 -8.507745 -2.994125 0.000001 0.000001 -0.000000 0.551016 -2.717397 22.921271 1.069499 -3.710370 32.149127 0.000002 0.000002 -0.000002 0.641211 -2.921302 24.754928 1.120469 -3.790067 32.928243 -0.000001 -0.000002 -0.000001 0.549807 -2.714566 22.895784 1.520029 -4.343842 38.557535 0.000002 -0.000000 -0.000002 0.260328 -1.888407 15.696796 1.584938 -4.423829 39.406650 0.000000 -0.000001 0.000001 -15.056416 9.229605 6.195592 22.843194 -1.694759 1.782360 -8.947570 0.686874 -4.861930 -0.000029 0.000002 0.000000 0.000000 0.000001 0.000000 -10.756622 -5.931914 -7.057109 22.289011 -9.137920 7.675890 -10.898717 -16.529176 0.704109 -0.365550 -0.000017 0.000002 -0.000000 0.000000 0.000000 
-0.559821 99.679726 -4.486814 0.828651 3.189482 -0.418480 18.133452 -0.795940 -1.374702 1.238723 -0.101848 0.428710 0.000000 0.000000 0.000000 1.238580 -0.085526 0.429643 17.373477 -0.124219 1.574506 10.863294 -4.143218 5.282622 -0.000000 0.000000 0.000000 10.762246 -36.958451 -0.671952 0.000000 0.000000 0.000000 12.927835 20.131033 -52.757897 0.000007 -33.986400 -0.000029 -1.225655 -5.466591 4.111477 -1.708918 11.916053 7.382929 4.613909 16.205059 1.361351 0.155760 9.814992 3.327236 -0.000006 -0.000001 0.000003 0.494379 2.566458 -21.803236 0.839064 3.299081 -28.532355 -0.000002 -0.000001 0.000000 0.677855 2.983990 -25.589363 0.765043 3.159352 -27.218343 0.000000 -0.000000 0.000001 0.753795 3.137405 -27.009222 1.450039 4.231680 -37.815336 0.000000 -0.000001 -0.000003 2.813453 6.891792 -28.533259 1.472712 0.174604 -38.316538 -0.000002 0.000003 -0.000001 0.465290 -2.973857 6.249358 0.000000 0.000000 0.000000 3.518508 19.404434 36.092653 -0.000007 9.454697 0.000010 25.047055 17.849528 -11.547650 -1.993398 -12.184081 -7.943292 5.445369 -17.291846 -0.861765 -0.502637 -8.507742 -2.994125 0.000002 -0.000001 -0.000001 0.559393 -2.737108 23.097335 1.073957 -3.717435 32.217948 0.000002 -0.000002 -0.000000 0.665963 -2.974310 25.236103 1.136566 -3.814774 33.171203 -0.000001 -0.000001 -0.000002 0.595364 -2.819854 23.839213 1.557757 -4.390631 39.053010 -0.000001 -0.000001 0.000001 0.312838 -2.066047 17.218550 1.644635 -4.495284 40.174517 -0.000004 -0.000002 0.000001 -14.932844 9.237779 6.150627 22.795857 -1.713005 1.787653 -8.971007 0.687784 -4.860541 -0.000033 0.000003 -0.000000 -0.000000 0.000000 0.000000 -10.656600 -5.953315 -7.092824 22.277176 -9.127503 7.668416 -10.934268 -16.536165 0.726749 -0.353049 0.000003 0.000001 -0.000000 0.000000 0.000000 
-0.553413 99.677177 -4.440050 0.773536 3.249941 -0.383958 17.981960 -0.742464 -1.427404 1.238184 -0.094587 0.448609 0.000000 0.000000 0.000000 1.237970 -0.077739 0.449470 17.348626 -0.289013 1.591245 10.892231 -4.629323 5.512789 -0.000002 -0.000000 -0.000000 10.567759 -36.765713 -0.762365 0.000000 0.000000 0.000000 12.983233 19.868940 -53.051845 0.000000 -33.730404 0.000003 -1.527553 -6.711026 4.380216 -1.708915 11.916056 7.382931 4.613912 16.205063 1.361353 0.155759 9.814990 3.327240 -0.000001 0.000000 -0.000000 0.478282 2.525893 -21.440900 0.830294 3.282920 -28.379535 0.000003 0.000000 0.000000 0.671145 2.969942 -25.460189 0.761134 3.151772 -27.147342 -0.000002 -0.000001 -0.000001 0.763872 3.157057 -27.192877 1.456135 4.239502 -37.897933 0.000001 -0.000000 -0.000005 2.866765 6.922859 -28.976593 1.494581 0.202134 -38.608017 0.000002 -0.000000 -0.000004 0.469761 -2.980016 6.322710 0.000000 0.000000 0.000000 2.938483 19.275253 37.153982 -0.000001 9.287214 0.000024 25.387972 17.751149 -11.595553 -1.993219 -12.183984 -7.943300 5.445496 -17.291807 -0.861999 -0.502632 -8.507747 -2.994128 0.000003 0.000000 -0.000000 0.557124 -2.731782 23.049617 1.072719 -3.715467 32.198850 -0.000004 0.000001 -0.000000 0.682225 -3.008523 25.547675 1.147050 -3.830724 33.328492 -0.000003 0.000001 -0.000001 0.637273 -2.912731 24.677226 1.591164 -4.431358 39.487366 -0.000000 0.000001 -0.000003 0.367496 -2.234714 18.675375 1.702575 -4.562821 40.908192 0.000001 0.000001 -0.000002 -14.829959 9.233166 6.095928 22.774936 -1.746688 1.804060 -8.993422 0.688552 -4.859114 -0.000052 0.000007 -0.000003 0.000000 -0.000001 0.000000 -10.569976 -5.980528 -7.135464 22.295660 -9.113181 7.664279 -10.980712 -16.562225 0.747832 -0.338197 0.000003 0.000000 -0.000000 -0.000005 -0.000000 
